<svg xmlns="http://www.w3.org/2000/svg" width="1040" height="1120" viewBox="0 0 1040 1120">
<rect width="100%" height="100%" fill="white"/>
<style>text{font-family:Arial,Helvetica,sans-serif}.grid{stroke:#e6e8eb;stroke-width:1}.axis{stroke:#5f6368;stroke-width:1}</style>
<text x="520.0" y="28.0" font-size="18" text-anchor="middle" font-weight="bold" fill="#202124">Owlii raw physical RD curves</text>
<line x1="310.0" y1="48" x2="334.0" y2="48" stroke="#202124" stroke-width="2"/>
<circle cx="322.00" cy="48.00" r="3.2" fill="white" stroke="#202124" stroke-width="1.8"/>
<text x="340.0" y="52.0" font-size="11" text-anchor="start" font-weight="normal" fill="#202124">Original Unicorn</text>
<line x1="455.0" y1="48" x2="479.0" y2="48" stroke="#1a73e8" stroke-width="2"/>
<rect x="463.90" y="44.90" width="6.2" height="6.2" fill="white" stroke="#1a73e8" stroke-width="1.8"/>
<text x="485.0" y="52.0" font-size="11" text-anchor="start" font-weight="normal" fill="#202124">Ours Base</text>
<line x1="600.0" y1="48" x2="624.0" y2="48" stroke="#d93025" stroke-width="2"/>
<polygon points="612.00,44.20 608.40,51.00 615.60,51.00" fill="white" stroke="#d93025" stroke-width="1.8"/>
<text x="630.0" y="52.0" font-size="11" text-anchor="start" font-weight="normal" fill="#202124">Ours Full</text>
<line class="grid" x1="58.0" y1="68" x2="58.0" y2="243"/>
<line class="grid" x1="58" y1="68.0" x2="448" y2="68.0"/>
<text x="58.0" y="261.0" font-size="9" text-anchor="middle" font-weight="normal" fill="#5f6368">0.00</text>
<text x="51.0" y="246.0" font-size="9" text-anchor="end" font-weight="normal" fill="#5f6368">30.2</text>
<line class="grid" x1="155.5" y1="68" x2="155.5" y2="243"/>
<line class="grid" x1="58" y1="111.8" x2="448" y2="111.8"/>
<text x="155.5" y="261.0" font-size="9" text-anchor="middle" font-weight="normal" fill="#5f6368">0.20</text>
<text x="51.0" y="202.2" font-size="9" text-anchor="end" font-weight="normal" fill="#5f6368">34.4</text>
<line class="grid" x1="253.0" y1="68" x2="253.0" y2="243"/>
<line class="grid" x1="58" y1="155.5" x2="448" y2="155.5"/>
<text x="253.0" y="261.0" font-size="9" text-anchor="middle" font-weight="normal" fill="#5f6368">0.40</text>
<text x="51.0" y="158.5" font-size="9" text-anchor="end" font-weight="normal" fill="#5f6368">38.7</text>
<line class="grid" x1="350.5" y1="68" x2="350.5" y2="243"/>
<line class="grid" x1="58" y1="199.2" x2="448" y2="199.2"/>
<text x="350.5" y="261.0" font-size="9" text-anchor="middle" font-weight="normal" fill="#5f6368">0.60</text>
<text x="51.0" y="114.8" font-size="9" text-anchor="end" font-weight="normal" fill="#5f6368">42.9</text>
<line class="grid" x1="448.0" y1="68" x2="448.0" y2="243"/>
<line class="grid" x1="58" y1="243.0" x2="448" y2="243.0"/>
<text x="448.0" y="261.0" font-size="9" text-anchor="middle" font-weight="normal" fill="#5f6368">0.80</text>
<text x="51.0" y="71.0" font-size="9" text-anchor="end" font-weight="normal" fill="#5f6368">47.2</text>
<line class="axis" x1="58" y1="243" x2="448" y2="243"/>
<line class="axis" x1="58" y1="68" x2="58" y2="243"/>
<text x="253.0" y="56.0" font-size="12" text-anchor="middle" font-weight="bold" fill="#202124">basketball_player — Y PSNR</text>
<text x="253.0" y="279.0" font-size="10" text-anchor="middle" font-weight="normal" fill="#202124">physical bpp</text>
<text x="446.0" y="82.0" font-size="10" text-anchor="end" font-weight="normal" fill="#5f6368">competitive</text>
<polyline points="71.95,230.93 76.24,215.34 83.03,199.85 93.34,183.82 108.85,166.17 129.49,150.59 191.49,129.83 246.94,113.20 317.05,99.69" fill="none" stroke="#202124" stroke-width="1.7"/>
<circle cx="71.95" cy="230.93" r="3.2" fill="white" stroke="#202124" stroke-width="1.8"/>
<circle cx="76.24" cy="215.34" r="3.2" fill="white" stroke="#202124" stroke-width="1.8"/>
<circle cx="83.03" cy="199.85" r="3.2" fill="white" stroke="#202124" stroke-width="1.8"/>
<circle cx="93.34" cy="183.82" r="3.2" fill="white" stroke="#202124" stroke-width="1.8"/>
<circle cx="108.85" cy="166.17" r="3.2" fill="white" stroke="#202124" stroke-width="1.8"/>
<circle cx="129.49" cy="150.59" r="3.2" fill="white" stroke="#202124" stroke-width="1.8"/>
<circle cx="191.49" cy="129.83" r="3.2" fill="white" stroke="#202124" stroke-width="1.8"/>
<circle cx="246.94" cy="113.20" r="3.2" fill="white" stroke="#202124" stroke-width="1.8"/>
<circle cx="317.05" cy="99.69" r="3.2" fill="white" stroke="#202124" stroke-width="1.8"/>
<polyline points="81.49,201.43 87.75,190.87 103.12,173.76 122.25,160.69 131.38,154.82 144.41,148.88 173.50,140.92" fill="none" stroke="#1a73e8" stroke-width="1.7"/>
<rect x="78.39" y="198.33" width="6.2" height="6.2" fill="white" stroke="#1a73e8" stroke-width="1.8"/>
<rect x="84.65" y="187.77" width="6.2" height="6.2" fill="white" stroke="#1a73e8" stroke-width="1.8"/>
<rect x="100.02" y="170.66" width="6.2" height="6.2" fill="white" stroke="#1a73e8" stroke-width="1.8"/>
<rect x="119.15" y="157.59" width="6.2" height="6.2" fill="white" stroke="#1a73e8" stroke-width="1.8"/>
<rect x="128.28" y="151.72" width="6.2" height="6.2" fill="white" stroke="#1a73e8" stroke-width="1.8"/>
<rect x="141.31" y="145.78" width="6.2" height="6.2" fill="white" stroke="#1a73e8" stroke-width="1.8"/>
<rect x="170.40" y="137.82" width="6.2" height="6.2" fill="white" stroke="#1a73e8" stroke-width="1.8"/>
<polyline points="82.23,200.39 91.36,186.20 111.23,164.37 136.62,150.76 164.28,139.93 218.49,121.44 430.09,80.07" fill="none" stroke="#d93025" stroke-width="1.7"/>
<polygon points="82.23,196.59 78.63,203.39 85.83,203.39" fill="white" stroke="#d93025" stroke-width="1.8"/>
<polygon points="91.36,182.40 87.76,189.20 94.96,189.20" fill="white" stroke="#d93025" stroke-width="1.8"/>
<polygon points="111.23,160.57 107.63,167.37 114.83,167.37" fill="white" stroke="#d93025" stroke-width="1.8"/>
<polygon points="136.62,146.96 133.02,153.76 140.22,153.76" fill="white" stroke="#d93025" stroke-width="1.8"/>
<polygon points="164.28,136.13 160.68,142.93 167.88,142.93" fill="white" stroke="#d93025" stroke-width="1.8"/>
<polygon points="218.49,117.64 214.89,124.44 222.09,124.44" fill="white" stroke="#d93025" stroke-width="1.8"/>
<polygon points="430.09,76.27 426.49,83.07 433.69,83.07" fill="white" stroke="#d93025" stroke-width="1.8"/>
<line class="grid" x1="548.0" y1="68" x2="548.0" y2="243"/>
<line class="grid" x1="548" y1="68.0" x2="938" y2="68.0"/>
<text x="548.0" y="261.0" font-size="9" text-anchor="middle" font-weight="normal" fill="#5f6368">0.00</text>
<text x="541.0" y="246.0" font-size="9" text-anchor="end" font-weight="normal" fill="#5f6368">33.6</text>
<line class="grid" x1="645.5" y1="68" x2="645.5" y2="243"/>
<line class="grid" x1="548" y1="111.8" x2="938" y2="111.8"/>
<text x="645.5" y="261.0" font-size="9" text-anchor="middle" font-weight="normal" fill="#5f6368">0.20</text>
<text x="541.0" y="202.2" font-size="9" text-anchor="end" font-weight="normal" fill="#5f6368">37.0</text>
<line class="grid" x1="743.0" y1="68" x2="743.0" y2="243"/>
<line class="grid" x1="548" y1="155.5" x2="938" y2="155.5"/>
<text x="743.0" y="261.0" font-size="9" text-anchor="middle" font-weight="normal" fill="#5f6368">0.40</text>
<text x="541.0" y="158.5" font-size="9" text-anchor="end" font-weight="normal" fill="#5f6368">40.5</text>
<line class="grid" x1="840.5" y1="68" x2="840.5" y2="243"/>
<line class="grid" x1="548" y1="199.2" x2="938" y2="199.2"/>
<text x="840.5" y="261.0" font-size="9" text-anchor="middle" font-weight="normal" fill="#5f6368">0.60</text>
<text x="541.0" y="114.8" font-size="9" text-anchor="end" font-weight="normal" fill="#5f6368">43.9</text>
<line class="grid" x1="938.0" y1="68" x2="938.0" y2="243"/>
<line class="grid" x1="548" y1="243.0" x2="938" y2="243.0"/>
<text x="938.0" y="261.0" font-size="9" text-anchor="middle" font-weight="normal" fill="#5f6368">0.80</text>
<text x="541.0" y="71.0" font-size="9" text-anchor="end" font-weight="normal" fill="#5f6368">47.4</text>
<line class="axis" x1="548" y1="243" x2="938" y2="243"/>
<line class="axis" x1="548" y1="68" x2="548" y2="243"/>
<text x="743.0" y="56.0" font-size="12" text-anchor="middle" font-weight="bold" fill="#202124">basketball_player — YUV611 PSNR</text>
<text x="743.0" y="279.0" font-size="10" text-anchor="middle" font-weight="normal" fill="#202124">physical bpp</text>
<text x="936.0" y="82.0" font-size="10" text-anchor="end" font-weight="normal" fill="#5f6368">competitive</text>
<polyline points="561.95,230.93 566.24,215.54 573.03,200.62 583.34,185.01 598.85,166.32 619.49,150.55 681.49,128.51 736.94,110.37 807.05,95.66" fill="none" stroke="#202124" stroke-width="1.7"/>
<circle cx="561.95" cy="230.93" r="3.2" fill="white" stroke="#202124" stroke-width="1.8"/>
<circle cx="566.24" cy="215.54" r="3.2" fill="white" stroke="#202124" stroke-width="1.8"/>
<circle cx="573.03" cy="200.62" r="3.2" fill="white" stroke="#202124" stroke-width="1.8"/>
<circle cx="583.34" cy="185.01" r="3.2" fill="white" stroke="#202124" stroke-width="1.8"/>
<circle cx="598.85" cy="166.32" r="3.2" fill="white" stroke="#202124" stroke-width="1.8"/>
<circle cx="619.49" cy="150.55" r="3.2" fill="white" stroke="#202124" stroke-width="1.8"/>
<circle cx="681.49" cy="128.51" r="3.2" fill="white" stroke="#202124" stroke-width="1.8"/>
<circle cx="736.94" cy="110.37" r="3.2" fill="white" stroke="#202124" stroke-width="1.8"/>
<circle cx="807.05" cy="95.66" r="3.2" fill="white" stroke="#202124" stroke-width="1.8"/>
<polyline points="571.49,201.44 577.75,191.23 593.12,173.26 612.25,158.56 621.38,154.24 634.41,145.62 663.50,136.81" fill="none" stroke="#1a73e8" stroke-width="1.7"/>
<rect x="568.39" y="198.34" width="6.2" height="6.2" fill="white" stroke="#1a73e8" stroke-width="1.8"/>
<rect x="574.65" y="188.13" width="6.2" height="6.2" fill="white" stroke="#1a73e8" stroke-width="1.8"/>
<rect x="590.02" y="170.16" width="6.2" height="6.2" fill="white" stroke="#1a73e8" stroke-width="1.8"/>
<rect x="609.15" y="155.46" width="6.2" height="6.2" fill="white" stroke="#1a73e8" stroke-width="1.8"/>
<rect x="618.28" y="151.14" width="6.2" height="6.2" fill="white" stroke="#1a73e8" stroke-width="1.8"/>
<rect x="631.31" y="142.52" width="6.2" height="6.2" fill="white" stroke="#1a73e8" stroke-width="1.8"/>
<rect x="660.40" y="133.71" width="6.2" height="6.2" fill="white" stroke="#1a73e8" stroke-width="1.8"/>
<polyline points="572.23,200.50 581.36,186.89 601.23,164.54 626.62,150.57 654.28,138.91 708.49,118.93 920.09,80.07" fill="none" stroke="#d93025" stroke-width="1.7"/>
<polygon points="572.23,196.70 568.63,203.50 575.83,203.50" fill="white" stroke="#d93025" stroke-width="1.8"/>
<polygon points="581.36,183.09 577.76,189.89 584.96,189.89" fill="white" stroke="#d93025" stroke-width="1.8"/>
<polygon points="601.23,160.74 597.63,167.54 604.83,167.54" fill="white" stroke="#d93025" stroke-width="1.8"/>
<polygon points="626.62,146.77 623.02,153.57 630.22,153.57" fill="white" stroke="#d93025" stroke-width="1.8"/>
<polygon points="654.28,135.11 650.68,141.91 657.88,141.91" fill="white" stroke="#d93025" stroke-width="1.8"/>
<polygon points="708.49,115.13 704.89,121.93 712.09,121.93" fill="white" stroke="#d93025" stroke-width="1.8"/>
<polygon points="920.09,76.27 916.49,83.07 923.69,83.07" fill="white" stroke="#d93025" stroke-width="1.8"/>
<line class="grid" x1="58.0" y1="323" x2="58.0" y2="498"/>
<line class="grid" x1="58" y1="323.0" x2="448" y2="323.0"/>
<text x="58.0" y="516.0" font-size="9" text-anchor="middle" font-weight="normal" fill="#5f6368">0.00</text>
<text x="51.0" y="501.0" font-size="9" text-anchor="end" font-weight="normal" fill="#5f6368">29.5</text>
<line class="grid" x1="155.5" y1="323" x2="155.5" y2="498"/>
<line class="grid" x1="58" y1="366.8" x2="448" y2="366.8"/>
<text x="155.5" y="516.0" font-size="9" text-anchor="middle" font-weight="normal" fill="#5f6368">0.24</text>
<text x="51.0" y="457.2" font-size="9" text-anchor="end" font-weight="normal" fill="#5f6368">33.8</text>
<line class="grid" x1="253.0" y1="323" x2="253.0" y2="498"/>
<line class="grid" x1="58" y1="410.5" x2="448" y2="410.5"/>
<text x="253.0" y="516.0" font-size="9" text-anchor="middle" font-weight="normal" fill="#5f6368">0.48</text>
<text x="51.0" y="413.5" font-size="9" text-anchor="end" font-weight="normal" fill="#5f6368">38.2</text>
<line class="grid" x1="350.5" y1="323" x2="350.5" y2="498"/>
<line class="grid" x1="58" y1="454.2" x2="448" y2="454.2"/>
<text x="350.5" y="516.0" font-size="9" text-anchor="middle" font-weight="normal" fill="#5f6368">0.72</text>
<text x="51.0" y="369.8" font-size="9" text-anchor="end" font-weight="normal" fill="#5f6368">42.5</text>
<line class="grid" x1="448.0" y1="323" x2="448.0" y2="498"/>
<line class="grid" x1="58" y1="498.0" x2="448" y2="498.0"/>
<text x="448.0" y="516.0" font-size="9" text-anchor="middle" font-weight="normal" fill="#5f6368">0.96</text>
<text x="51.0" y="326.0" font-size="9" text-anchor="end" font-weight="normal" fill="#5f6368">46.8</text>
<line class="axis" x1="58" y1="498" x2="448" y2="498"/>
<line class="axis" x1="58" y1="323" x2="58" y2="498"/>
<text x="253.0" y="311.0" font-size="12" text-anchor="middle" font-weight="bold" fill="#202124">dancer — Y PSNR</text>
<text x="253.0" y="534.0" font-size="10" text-anchor="middle" font-weight="normal" fill="#202124">physical bpp</text>
<text x="446.0" y="337.0" font-size="10" text-anchor="end" font-weight="normal" fill="#5f6368">competitive</text>
<polyline points="72.67,485.93 76.92,472.68 84.19,456.96 94.24,441.97 111.32,424.29 134.07,408.54 197.26,385.20 249.92,368.44 318.52,354.51" fill="none" stroke="#202124" stroke-width="1.7"/>
<circle cx="72.67" cy="485.93" r="3.2" fill="white" stroke="#202124" stroke-width="1.8"/>
<circle cx="76.92" cy="472.68" r="3.2" fill="white" stroke="#202124" stroke-width="1.8"/>
<circle cx="84.19" cy="456.96" r="3.2" fill="white" stroke="#202124" stroke-width="1.8"/>
<circle cx="94.24" cy="441.97" r="3.2" fill="white" stroke="#202124" stroke-width="1.8"/>
<circle cx="111.32" cy="424.29" r="3.2" fill="white" stroke="#202124" stroke-width="1.8"/>
<circle cx="134.07" cy="408.54" r="3.2" fill="white" stroke="#202124" stroke-width="1.8"/>
<circle cx="197.26" cy="385.20" r="3.2" fill="white" stroke="#202124" stroke-width="1.8"/>
<circle cx="249.92" cy="368.44" r="3.2" fill="white" stroke="#202124" stroke-width="1.8"/>
<circle cx="318.52" cy="354.51" r="3.2" fill="white" stroke="#202124" stroke-width="1.8"/>
<polyline points="80.82,465.92 87.45,457.26 103.40,441.57 124.11,418.94 135.34,411.77 145.69,406.86 173.81,398.10" fill="none" stroke="#1a73e8" stroke-width="1.7"/>
<rect x="77.72" y="462.82" width="6.2" height="6.2" fill="white" stroke="#1a73e8" stroke-width="1.8"/>
<rect x="84.35" y="454.16" width="6.2" height="6.2" fill="white" stroke="#1a73e8" stroke-width="1.8"/>
<rect x="100.30" y="438.47" width="6.2" height="6.2" fill="white" stroke="#1a73e8" stroke-width="1.8"/>
<rect x="121.01" y="415.84" width="6.2" height="6.2" fill="white" stroke="#1a73e8" stroke-width="1.8"/>
<rect x="132.24" y="408.67" width="6.2" height="6.2" fill="white" stroke="#1a73e8" stroke-width="1.8"/>
<rect x="142.59" y="403.76" width="6.2" height="6.2" fill="white" stroke="#1a73e8" stroke-width="1.8"/>
<rect x="170.71" y="395.00" width="6.2" height="6.2" fill="white" stroke="#1a73e8" stroke-width="1.8"/>
<polyline points="82.84,458.86 92.91,444.39 115.10,423.48 140.67,408.23 171.75,395.99 223.85,377.15 430.13,335.07" fill="none" stroke="#d93025" stroke-width="1.7"/>
<polygon points="82.84,455.06 79.24,461.86 86.44,461.86" fill="white" stroke="#d93025" stroke-width="1.8"/>
<polygon points="92.91,440.59 89.31,447.39 96.51,447.39" fill="white" stroke="#d93025" stroke-width="1.8"/>
<polygon points="115.10,419.68 111.50,426.48 118.70,426.48" fill="white" stroke="#d93025" stroke-width="1.8"/>
<polygon points="140.67,404.43 137.07,411.23 144.27,411.23" fill="white" stroke="#d93025" stroke-width="1.8"/>
<polygon points="171.75,392.19 168.15,398.99 175.35,398.99" fill="white" stroke="#d93025" stroke-width="1.8"/>
<polygon points="223.85,373.35 220.25,380.15 227.45,380.15" fill="white" stroke="#d93025" stroke-width="1.8"/>
<polygon points="430.13,331.27 426.53,338.07 433.73,338.07" fill="white" stroke="#d93025" stroke-width="1.8"/>
<line class="grid" x1="548.0" y1="323" x2="548.0" y2="498"/>
<line class="grid" x1="548" y1="323.0" x2="938" y2="323.0"/>
<text x="548.0" y="516.0" font-size="9" text-anchor="middle" font-weight="normal" fill="#5f6368">0.00</text>
<text x="541.0" y="501.0" font-size="9" text-anchor="end" font-weight="normal" fill="#5f6368">32.8</text>
<line class="grid" x1="645.5" y1="323" x2="645.5" y2="498"/>
<line class="grid" x1="548" y1="366.8" x2="938" y2="366.8"/>
<text x="645.5" y="516.0" font-size="9" text-anchor="middle" font-weight="normal" fill="#5f6368">0.24</text>
<text x="541.0" y="457.2" font-size="9" text-anchor="end" font-weight="normal" fill="#5f6368">36.4</text>
<line class="grid" x1="743.0" y1="323" x2="743.0" y2="498"/>
<line class="grid" x1="548" y1="410.5" x2="938" y2="410.5"/>
<text x="743.0" y="516.0" font-size="9" text-anchor="middle" font-weight="normal" fill="#5f6368">0.48</text>
<text x="541.0" y="413.5" font-size="9" text-anchor="end" font-weight="normal" fill="#5f6368">40.1</text>
<line class="grid" x1="840.5" y1="323" x2="840.5" y2="498"/>
<line class="grid" x1="548" y1="454.2" x2="938" y2="454.2"/>
<text x="840.5" y="516.0" font-size="9" text-anchor="middle" font-weight="normal" fill="#5f6368">0.72</text>
<text x="541.0" y="369.8" font-size="9" text-anchor="end" font-weight="normal" fill="#5f6368">43.7</text>
<line class="grid" x1="938.0" y1="323" x2="938.0" y2="498"/>
<line class="grid" x1="548" y1="498.0" x2="938" y2="498.0"/>
<text x="938.0" y="516.0" font-size="9" text-anchor="middle" font-weight="normal" fill="#5f6368">0.96</text>
<text x="541.0" y="326.0" font-size="9" text-anchor="end" font-weight="normal" fill="#5f6368">47.3</text>
<line class="axis" x1="548" y1="498" x2="938" y2="498"/>
<line class="axis" x1="548" y1="323" x2="548" y2="498"/>
<text x="743.0" y="311.0" font-size="12" text-anchor="middle" font-weight="bold" fill="#202124">dancer — YUV611 PSNR</text>
<text x="743.0" y="534.0" font-size="10" text-anchor="middle" font-weight="normal" fill="#202124">physical bpp</text>
<text x="936.0" y="337.0" font-size="10" text-anchor="end" font-weight="normal" fill="#5f6368">competitive</text>
<polyline points="562.67,485.93 566.92,473.02 574.19,457.88 584.24,442.79 601.32,423.29 624.07,407.35 687.26,381.94 739.92,364.16 808.52,349.32" fill="none" stroke="#202124" stroke-width="1.7"/>
<circle cx="562.67" cy="485.93" r="3.2" fill="white" stroke="#202124" stroke-width="1.8"/>
<circle cx="566.92" cy="473.02" r="3.2" fill="white" stroke="#202124" stroke-width="1.8"/>
<circle cx="574.19" cy="457.88" r="3.2" fill="white" stroke="#202124" stroke-width="1.8"/>
<circle cx="584.24" cy="442.79" r="3.2" fill="white" stroke="#202124" stroke-width="1.8"/>
<circle cx="601.32" cy="423.29" r="3.2" fill="white" stroke="#202124" stroke-width="1.8"/>
<circle cx="624.07" cy="407.35" r="3.2" fill="white" stroke="#202124" stroke-width="1.8"/>
<circle cx="687.26" cy="381.94" r="3.2" fill="white" stroke="#202124" stroke-width="1.8"/>
<circle cx="739.92" cy="364.16" r="3.2" fill="white" stroke="#202124" stroke-width="1.8"/>
<circle cx="808.52" cy="349.32" r="3.2" fill="white" stroke="#202124" stroke-width="1.8"/>
<polyline points="570.82,465.46 577.45,456.55 593.40,440.16 614.11,415.08 625.34,409.51 635.69,402.41 663.81,393.14" fill="none" stroke="#1a73e8" stroke-width="1.7"/>
<rect x="567.72" y="462.36" width="6.2" height="6.2" fill="white" stroke="#1a73e8" stroke-width="1.8"/>
<rect x="574.35" y="453.45" width="6.2" height="6.2" fill="white" stroke="#1a73e8" stroke-width="1.8"/>
<rect x="590.30" y="437.06" width="6.2" height="6.2" fill="white" stroke="#1a73e8" stroke-width="1.8"/>
<rect x="611.01" y="411.98" width="6.2" height="6.2" fill="white" stroke="#1a73e8" stroke-width="1.8"/>
<rect x="622.24" y="406.41" width="6.2" height="6.2" fill="white" stroke="#1a73e8" stroke-width="1.8"/>
<rect x="632.59" y="399.31" width="6.2" height="6.2" fill="white" stroke="#1a73e8" stroke-width="1.8"/>
<rect x="660.71" y="390.04" width="6.2" height="6.2" fill="white" stroke="#1a73e8" stroke-width="1.8"/>
<polyline points="572.84,459.19 582.91,444.83 605.10,423.82 630.67,406.25 661.75,393.17 713.85,373.46 920.13,335.07" fill="none" stroke="#d93025" stroke-width="1.7"/>
<polygon points="572.84,455.39 569.24,462.19 576.44,462.19" fill="white" stroke="#d93025" stroke-width="1.8"/>
<polygon points="582.91,441.03 579.31,447.83 586.51,447.83" fill="white" stroke="#d93025" stroke-width="1.8"/>
<polygon points="605.10,420.02 601.50,426.82 608.70,426.82" fill="white" stroke="#d93025" stroke-width="1.8"/>
<polygon points="630.67,402.45 627.07,409.25 634.27,409.25" fill="white" stroke="#d93025" stroke-width="1.8"/>
<polygon points="661.75,389.37 658.15,396.17 665.35,396.17" fill="white" stroke="#d93025" stroke-width="1.8"/>
<polygon points="713.85,369.66 710.25,376.46 717.45,376.46" fill="white" stroke="#d93025" stroke-width="1.8"/>
<polygon points="920.13,331.27 916.53,338.07 923.73,338.07" fill="white" stroke="#d93025" stroke-width="1.8"/>
<line class="grid" x1="58.0" y1="578" x2="58.0" y2="753"/>
<line class="grid" x1="58" y1="578.0" x2="448" y2="578.0"/>
<text x="58.0" y="771.0" font-size="9" text-anchor="middle" font-weight="normal" fill="#5f6368">0.00</text>
<text x="51.0" y="756.0" font-size="9" text-anchor="end" font-weight="normal" fill="#5f6368">31.4</text>
<line class="grid" x1="155.5" y1="578" x2="155.5" y2="753"/>
<line class="grid" x1="58" y1="621.8" x2="448" y2="621.8"/>
<text x="155.5" y="771.0" font-size="9" text-anchor="middle" font-weight="normal" fill="#5f6368">0.25</text>
<text x="51.0" y="712.2" font-size="9" text-anchor="end" font-weight="normal" fill="#5f6368">35.1</text>
<line class="grid" x1="253.0" y1="578" x2="253.0" y2="753"/>
<line class="grid" x1="58" y1="665.5" x2="448" y2="665.5"/>
<text x="253.0" y="771.0" font-size="9" text-anchor="middle" font-weight="normal" fill="#5f6368">0.49</text>
<text x="51.0" y="668.5" font-size="9" text-anchor="end" font-weight="normal" fill="#5f6368">38.9</text>
<line class="grid" x1="350.5" y1="578" x2="350.5" y2="753"/>
<line class="grid" x1="58" y1="709.2" x2="448" y2="709.2"/>
<text x="350.5" y="771.0" font-size="9" text-anchor="middle" font-weight="normal" fill="#5f6368">0.74</text>
<text x="51.0" y="624.8" font-size="9" text-anchor="end" font-weight="normal" fill="#5f6368">42.6</text>
<line class="grid" x1="448.0" y1="578" x2="448.0" y2="753"/>
<line class="grid" x1="58" y1="753.0" x2="448" y2="753.0"/>
<text x="448.0" y="771.0" font-size="9" text-anchor="middle" font-weight="normal" fill="#5f6368">0.98</text>
<text x="51.0" y="581.0" font-size="9" text-anchor="end" font-weight="normal" fill="#5f6368">46.3</text>
<line class="axis" x1="58" y1="753" x2="448" y2="753"/>
<line class="axis" x1="58" y1="578" x2="58" y2="753"/>
<text x="253.0" y="566.0" font-size="12" text-anchor="middle" font-weight="bold" fill="#202124">exercise — Y PSNR</text>
<text x="253.0" y="789.0" font-size="10" text-anchor="middle" font-weight="normal" fill="#202124">physical bpp</text>
<text x="446.0" y="592.0" font-size="10" text-anchor="end" font-weight="normal" fill="#5f6368">competitive</text>
<polyline points="66.38,740.93 68.25,730.10 71.95,716.77 78.17,703.27 88.17,688.76 103.19,674.72 164.34,653.30 216.57,636.98 283.81,623.10" fill="none" stroke="#202124" stroke-width="1.7"/>
<circle cx="66.38" cy="740.93" r="3.2" fill="white" stroke="#202124" stroke-width="1.8"/>
<circle cx="68.25" cy="730.10" r="3.2" fill="white" stroke="#202124" stroke-width="1.8"/>
<circle cx="71.95" cy="716.77" r="3.2" fill="white" stroke="#202124" stroke-width="1.8"/>
<circle cx="78.17" cy="703.27" r="3.2" fill="white" stroke="#202124" stroke-width="1.8"/>
<circle cx="88.17" cy="688.76" r="3.2" fill="white" stroke="#202124" stroke-width="1.8"/>
<circle cx="103.19" cy="674.72" r="3.2" fill="white" stroke="#202124" stroke-width="1.8"/>
<circle cx="164.34" cy="653.30" r="3.2" fill="white" stroke="#202124" stroke-width="1.8"/>
<circle cx="216.57" cy="636.98" r="3.2" fill="white" stroke="#202124" stroke-width="1.8"/>
<circle cx="283.81" cy="623.10" r="3.2" fill="white" stroke="#202124" stroke-width="1.8"/>
<polyline points="71.17,718.18 75.46,707.77 85.54,692.60 100.59,681.74 106.31,676.98 118.20,671.41 141.01,663.53" fill="none" stroke="#1a73e8" stroke-width="1.7"/>
<rect x="68.07" y="715.08" width="6.2" height="6.2" fill="white" stroke="#1a73e8" stroke-width="1.8"/>
<rect x="72.36" y="704.67" width="6.2" height="6.2" fill="white" stroke="#1a73e8" stroke-width="1.8"/>
<rect x="82.44" y="689.50" width="6.2" height="6.2" fill="white" stroke="#1a73e8" stroke-width="1.8"/>
<rect x="97.49" y="678.64" width="6.2" height="6.2" fill="white" stroke="#1a73e8" stroke-width="1.8"/>
<rect x="103.21" y="673.88" width="6.2" height="6.2" fill="white" stroke="#1a73e8" stroke-width="1.8"/>
<rect x="115.10" y="668.31" width="6.2" height="6.2" fill="white" stroke="#1a73e8" stroke-width="1.8"/>
<rect x="137.91" y="660.43" width="6.2" height="6.2" fill="white" stroke="#1a73e8" stroke-width="1.8"/>
<polyline points="71.70,716.99 77.60,703.80 90.75,685.88 109.46,674.33 135.59,662.26 188.38,643.37 429.83,590.07" fill="none" stroke="#d93025" stroke-width="1.7"/>
<polygon points="71.70,713.19 68.10,719.99 75.30,719.99" fill="white" stroke="#d93025" stroke-width="1.8"/>
<polygon points="77.60,700.00 74.00,706.80 81.20,706.80" fill="white" stroke="#d93025" stroke-width="1.8"/>
<polygon points="90.75,682.08 87.15,688.88 94.35,688.88" fill="white" stroke="#d93025" stroke-width="1.8"/>
<polygon points="109.46,670.53 105.86,677.33 113.06,677.33" fill="white" stroke="#d93025" stroke-width="1.8"/>
<polygon points="135.59,658.46 131.99,665.26 139.19,665.26" fill="white" stroke="#d93025" stroke-width="1.8"/>
<polygon points="188.38,639.57 184.78,646.37 191.98,646.37" fill="white" stroke="#d93025" stroke-width="1.8"/>
<polygon points="429.83,586.27 426.23,593.07 433.43,593.07" fill="white" stroke="#d93025" stroke-width="1.8"/>
<line class="grid" x1="548.0" y1="578" x2="548.0" y2="753"/>
<line class="grid" x1="548" y1="578.0" x2="938" y2="578.0"/>
<text x="548.0" y="771.0" font-size="9" text-anchor="middle" font-weight="normal" fill="#5f6368">0.00</text>
<text x="541.0" y="756.0" font-size="9" text-anchor="end" font-weight="normal" fill="#5f6368">34.5</text>
<line class="grid" x1="645.5" y1="578" x2="645.5" y2="753"/>
<line class="grid" x1="548" y1="621.8" x2="938" y2="621.8"/>
<text x="645.5" y="771.0" font-size="9" text-anchor="middle" font-weight="normal" fill="#5f6368">0.25</text>
<text x="541.0" y="712.2" font-size="9" text-anchor="end" font-weight="normal" fill="#5f6368">37.5</text>
<line class="grid" x1="743.0" y1="578" x2="743.0" y2="753"/>
<line class="grid" x1="548" y1="665.5" x2="938" y2="665.5"/>
<text x="743.0" y="771.0" font-size="9" text-anchor="middle" font-weight="normal" fill="#5f6368">0.49</text>
<text x="541.0" y="668.5" font-size="9" text-anchor="end" font-weight="normal" fill="#5f6368">40.6</text>
<line class="grid" x1="840.5" y1="578" x2="840.5" y2="753"/>
<line class="grid" x1="548" y1="709.2" x2="938" y2="709.2"/>
<text x="840.5" y="771.0" font-size="9" text-anchor="middle" font-weight="normal" fill="#5f6368">0.74</text>
<text x="541.0" y="624.8" font-size="9" text-anchor="end" font-weight="normal" fill="#5f6368">43.6</text>
<line class="grid" x1="938.0" y1="578" x2="938.0" y2="753"/>
<line class="grid" x1="548" y1="753.0" x2="938" y2="753.0"/>
<text x="938.0" y="771.0" font-size="9" text-anchor="middle" font-weight="normal" fill="#5f6368">0.98</text>
<text x="541.0" y="581.0" font-size="9" text-anchor="end" font-weight="normal" fill="#5f6368">46.7</text>
<line class="axis" x1="548" y1="753" x2="938" y2="753"/>
<line class="axis" x1="548" y1="578" x2="548" y2="753"/>
<text x="743.0" y="566.0" font-size="12" text-anchor="middle" font-weight="bold" fill="#202124">exercise — YUV611 PSNR</text>
<text x="743.0" y="789.0" font-size="10" text-anchor="middle" font-weight="normal" fill="#202124">physical bpp</text>
<text x="936.0" y="592.0" font-size="10" text-anchor="end" font-weight="normal" fill="#5f6368">competitive</text>
<polyline points="556.38,740.93 558.25,730.21 561.95,716.74 568.17,702.45 578.17,686.80 593.19,672.67 654.34,650.52 706.57,632.77 773.81,617.81" fill="none" stroke="#202124" stroke-width="1.7"/>
<circle cx="556.38" cy="740.93" r="3.2" fill="white" stroke="#202124" stroke-width="1.8"/>
<circle cx="558.25" cy="730.21" r="3.2" fill="white" stroke="#202124" stroke-width="1.8"/>
<circle cx="561.95" cy="716.74" r="3.2" fill="white" stroke="#202124" stroke-width="1.8"/>
<circle cx="568.17" cy="702.45" r="3.2" fill="white" stroke="#202124" stroke-width="1.8"/>
<circle cx="578.17" cy="686.80" r="3.2" fill="white" stroke="#202124" stroke-width="1.8"/>
<circle cx="593.19" cy="672.67" r="3.2" fill="white" stroke="#202124" stroke-width="1.8"/>
<circle cx="654.34" cy="650.52" r="3.2" fill="white" stroke="#202124" stroke-width="1.8"/>
<circle cx="706.57" cy="632.77" r="3.2" fill="white" stroke="#202124" stroke-width="1.8"/>
<circle cx="773.81" cy="617.81" r="3.2" fill="white" stroke="#202124" stroke-width="1.8"/>
<polyline points="561.17,717.19 565.46,706.05 575.54,689.96 590.59,678.12 596.31,674.36 608.20,666.60 631.01,657.91" fill="none" stroke="#1a73e8" stroke-width="1.7"/>
<rect x="558.07" y="714.09" width="6.2" height="6.2" fill="white" stroke="#1a73e8" stroke-width="1.8"/>
<rect x="562.36" y="702.95" width="6.2" height="6.2" fill="white" stroke="#1a73e8" stroke-width="1.8"/>
<rect x="572.44" y="686.86" width="6.2" height="6.2" fill="white" stroke="#1a73e8" stroke-width="1.8"/>
<rect x="587.49" y="675.02" width="6.2" height="6.2" fill="white" stroke="#1a73e8" stroke-width="1.8"/>
<rect x="593.21" y="671.26" width="6.2" height="6.2" fill="white" stroke="#1a73e8" stroke-width="1.8"/>
<rect x="605.10" y="663.50" width="6.2" height="6.2" fill="white" stroke="#1a73e8" stroke-width="1.8"/>
<rect x="627.91" y="654.81" width="6.2" height="6.2" fill="white" stroke="#1a73e8" stroke-width="1.8"/>
<polyline points="561.70,716.16 567.60,702.41 580.75,683.83 599.46,672.07 625.59,659.75 678.38,639.55 919.83,590.07" fill="none" stroke="#d93025" stroke-width="1.7"/>
<polygon points="561.70,712.36 558.10,719.16 565.30,719.16" fill="white" stroke="#d93025" stroke-width="1.8"/>
<polygon points="567.60,698.61 564.00,705.41 571.20,705.41" fill="white" stroke="#d93025" stroke-width="1.8"/>
<polygon points="580.75,680.03 577.15,686.83 584.35,686.83" fill="white" stroke="#d93025" stroke-width="1.8"/>
<polygon points="599.46,668.27 595.86,675.07 603.06,675.07" fill="white" stroke="#d93025" stroke-width="1.8"/>
<polygon points="625.59,655.95 621.99,662.75 629.19,662.75" fill="white" stroke="#d93025" stroke-width="1.8"/>
<polygon points="678.38,635.75 674.78,642.55 681.98,642.55" fill="white" stroke="#d93025" stroke-width="1.8"/>
<polygon points="919.83,586.27 916.23,593.07 923.43,593.07" fill="white" stroke="#d93025" stroke-width="1.8"/>
<line class="grid" x1="58.0" y1="833" x2="58.0" y2="1008"/>
<line class="grid" x1="58" y1="833.0" x2="448" y2="833.0"/>
<text x="58.0" y="1026.0" font-size="9" text-anchor="middle" font-weight="normal" fill="#5f6368">0.00</text>
<text x="51.0" y="1011.0" font-size="9" text-anchor="end" font-weight="normal" fill="#5f6368">27.2</text>
<line class="grid" x1="155.5" y1="833" x2="155.5" y2="1008"/>
<line class="grid" x1="58" y1="876.8" x2="448" y2="876.8"/>
<text x="155.5" y="1026.0" font-size="9" text-anchor="middle" font-weight="normal" fill="#5f6368">0.32</text>
<text x="51.0" y="967.2" font-size="9" text-anchor="end" font-weight="normal" fill="#5f6368">32.2</text>
<line class="grid" x1="253.0" y1="833" x2="253.0" y2="1008"/>
<line class="grid" x1="58" y1="920.5" x2="448" y2="920.5"/>
<text x="253.0" y="1026.0" font-size="9" text-anchor="middle" font-weight="normal" fill="#5f6368">0.64</text>
<text x="51.0" y="923.5" font-size="9" text-anchor="end" font-weight="normal" fill="#5f6368">37.2</text>
<line class="grid" x1="350.5" y1="833" x2="350.5" y2="1008"/>
<line class="grid" x1="58" y1="964.2" x2="448" y2="964.2"/>
<text x="350.5" y="1026.0" font-size="9" text-anchor="middle" font-weight="normal" fill="#5f6368">0.96</text>
<text x="51.0" y="879.8" font-size="9" text-anchor="end" font-weight="normal" fill="#5f6368">42.2</text>
<line class="grid" x1="448.0" y1="833" x2="448.0" y2="1008"/>
<line class="grid" x1="58" y1="1008.0" x2="448" y2="1008.0"/>
<text x="448.0" y="1026.0" font-size="9" text-anchor="middle" font-weight="normal" fill="#5f6368">1.28</text>
<text x="51.0" y="836.0" font-size="9" text-anchor="end" font-weight="normal" fill="#5f6368">47.1</text>
<line class="axis" x1="58" y1="1008" x2="448" y2="1008"/>
<line class="axis" x1="58" y1="833" x2="58" y2="1008"/>
<text x="253.0" y="821.0" font-size="12" text-anchor="middle" font-weight="bold" fill="#202124">model — Y PSNR</text>
<text x="253.0" y="1044.0" font-size="10" text-anchor="middle" font-weight="normal" fill="#202124">physical bpp</text>
<text x="446.0" y="847.0" font-size="10" text-anchor="end" font-weight="normal" fill="#5f6368">competitive</text>
<polyline points="72.97,995.93 78.03,982.88 87.10,968.01 101.32,951.87 121.06,936.06 142.62,923.71 215.24,898.21 269.61,881.16 335.56,866.26" fill="none" stroke="#202124" stroke-width="1.7"/>
<circle cx="72.97" cy="995.93" r="3.2" fill="white" stroke="#202124" stroke-width="1.8"/>
<circle cx="78.03" cy="982.88" r="3.2" fill="white" stroke="#202124" stroke-width="1.8"/>
<circle cx="87.10" cy="968.01" r="3.2" fill="white" stroke="#202124" stroke-width="1.8"/>
<circle cx="101.32" cy="951.87" r="3.2" fill="white" stroke="#202124" stroke-width="1.8"/>
<circle cx="121.06" cy="936.06" r="3.2" fill="white" stroke="#202124" stroke-width="1.8"/>
<circle cx="142.62" cy="923.71" r="3.2" fill="white" stroke="#202124" stroke-width="1.8"/>
<circle cx="215.24" cy="898.21" r="3.2" fill="white" stroke="#202124" stroke-width="1.8"/>
<circle cx="269.61" cy="881.16" r="3.2" fill="white" stroke="#202124" stroke-width="1.8"/>
<circle cx="335.56" cy="866.26" r="3.2" fill="white" stroke="#202124" stroke-width="1.8"/>
<polyline points="82.45,974.74 87.56,968.75 100.85,957.64 127.06,937.54 140.02,930.66 147.91,928.67 172.82,922.06" fill="none" stroke="#1a73e8" stroke-width="1.7"/>
<rect x="79.35" y="971.64" width="6.2" height="6.2" fill="white" stroke="#1a73e8" stroke-width="1.8"/>
<rect x="84.46" y="965.65" width="6.2" height="6.2" fill="white" stroke="#1a73e8" stroke-width="1.8"/>
<rect x="97.75" y="954.54" width="6.2" height="6.2" fill="white" stroke="#1a73e8" stroke-width="1.8"/>
<rect x="123.96" y="934.44" width="6.2" height="6.2" fill="white" stroke="#1a73e8" stroke-width="1.8"/>
<rect x="136.92" y="927.56" width="6.2" height="6.2" fill="white" stroke="#1a73e8" stroke-width="1.8"/>
<rect x="144.81" y="925.57" width="6.2" height="6.2" fill="white" stroke="#1a73e8" stroke-width="1.8"/>
<rect x="169.72" y="918.96" width="6.2" height="6.2" fill="white" stroke="#1a73e8" stroke-width="1.8"/>
<polyline points="84.58,971.39 97.18,956.65 120.91,937.66 151.12,922.16 188.38,908.07 246.54,889.01 430.14,845.07" fill="none" stroke="#d93025" stroke-width="1.7"/>
<polygon points="84.58,967.59 80.98,974.39 88.18,974.39" fill="white" stroke="#d93025" stroke-width="1.8"/>
<polygon points="97.18,952.85 93.58,959.65 100.78,959.65" fill="white" stroke="#d93025" stroke-width="1.8"/>
<polygon points="120.91,933.86 117.31,940.66 124.51,940.66" fill="white" stroke="#d93025" stroke-width="1.8"/>
<polygon points="151.12,918.36 147.52,925.16 154.72,925.16" fill="white" stroke="#d93025" stroke-width="1.8"/>
<polygon points="188.38,904.27 184.78,911.07 191.98,911.07" fill="white" stroke="#d93025" stroke-width="1.8"/>
<polygon points="246.54,885.21 242.94,892.01 250.14,892.01" fill="white" stroke="#d93025" stroke-width="1.8"/>
<polygon points="430.14,841.27 426.54,848.07 433.74,848.07" fill="white" stroke="#d93025" stroke-width="1.8"/>
<line class="grid" x1="548.0" y1="833" x2="548.0" y2="1008"/>
<line class="grid" x1="548" y1="833.0" x2="938" y2="833.0"/>
<text x="548.0" y="1026.0" font-size="9" text-anchor="middle" font-weight="normal" fill="#5f6368">0.00</text>
<text x="541.0" y="1011.0" font-size="9" text-anchor="end" font-weight="normal" fill="#5f6368">30.7</text>
<line class="grid" x1="645.5" y1="833" x2="645.5" y2="1008"/>
<line class="grid" x1="548" y1="876.8" x2="938" y2="876.8"/>
<text x="645.5" y="1026.0" font-size="9" text-anchor="middle" font-weight="normal" fill="#5f6368">0.32</text>
<text x="541.0" y="967.2" font-size="9" text-anchor="end" font-weight="normal" fill="#5f6368">34.8</text>
<line class="grid" x1="743.0" y1="833" x2="743.0" y2="1008"/>
<line class="grid" x1="548" y1="920.5" x2="938" y2="920.5"/>
<text x="743.0" y="1026.0" font-size="9" text-anchor="middle" font-weight="normal" fill="#5f6368">0.64</text>
<text x="541.0" y="923.5" font-size="9" text-anchor="end" font-weight="normal" fill="#5f6368">38.9</text>
<line class="grid" x1="840.5" y1="833" x2="840.5" y2="1008"/>
<line class="grid" x1="548" y1="964.2" x2="938" y2="964.2"/>
<text x="840.5" y="1026.0" font-size="9" text-anchor="middle" font-weight="normal" fill="#5f6368">0.96</text>
<text x="541.0" y="879.8" font-size="9" text-anchor="end" font-weight="normal" fill="#5f6368">43.0</text>
<line class="grid" x1="938.0" y1="833" x2="938.0" y2="1008"/>
<line class="grid" x1="548" y1="1008.0" x2="938" y2="1008.0"/>
<text x="938.0" y="1026.0" font-size="9" text-anchor="middle" font-weight="normal" fill="#5f6368">1.28</text>
<text x="541.0" y="836.0" font-size="9" text-anchor="end" font-weight="normal" fill="#5f6368">47.1</text>
<line class="axis" x1="548" y1="1008" x2="938" y2="1008"/>
<line class="axis" x1="548" y1="833" x2="548" y2="1008"/>
<text x="743.0" y="821.0" font-size="12" text-anchor="middle" font-weight="bold" fill="#202124">model — YUV611 PSNR</text>
<text x="743.0" y="1044.0" font-size="10" text-anchor="middle" font-weight="normal" fill="#202124">physical bpp</text>
<text x="936.0" y="847.0" font-size="10" text-anchor="end" font-weight="normal" fill="#5f6368">competitive</text>
<polyline points="562.97,995.93 568.03,983.26 577.10,968.53 591.32,952.84 611.06,935.33 632.62,922.55 705.24,894.81 759.61,876.24 825.56,860.49" fill="none" stroke="#202124" stroke-width="1.7"/>
<circle cx="562.97" cy="995.93" r="3.2" fill="white" stroke="#202124" stroke-width="1.8"/>
<circle cx="568.03" cy="983.26" r="3.2" fill="white" stroke="#202124" stroke-width="1.8"/>
<circle cx="577.10" cy="968.53" r="3.2" fill="white" stroke="#202124" stroke-width="1.8"/>
<circle cx="591.32" cy="952.84" r="3.2" fill="white" stroke="#202124" stroke-width="1.8"/>
<circle cx="611.06" cy="935.33" r="3.2" fill="white" stroke="#202124" stroke-width="1.8"/>
<circle cx="632.62" cy="922.55" r="3.2" fill="white" stroke="#202124" stroke-width="1.8"/>
<circle cx="705.24" cy="894.81" r="3.2" fill="white" stroke="#202124" stroke-width="1.8"/>
<circle cx="759.61" cy="876.24" r="3.2" fill="white" stroke="#202124" stroke-width="1.8"/>
<circle cx="825.56" cy="860.49" r="3.2" fill="white" stroke="#202124" stroke-width="1.8"/>
<polyline points="572.45,974.59 577.56,968.53 590.85,956.51 617.06,933.88 630.02,928.15 637.91,923.61 662.82,916.19" fill="none" stroke="#1a73e8" stroke-width="1.7"/>
<rect x="569.35" y="971.49" width="6.2" height="6.2" fill="white" stroke="#1a73e8" stroke-width="1.8"/>
<rect x="574.46" y="965.43" width="6.2" height="6.2" fill="white" stroke="#1a73e8" stroke-width="1.8"/>
<rect x="587.75" y="953.41" width="6.2" height="6.2" fill="white" stroke="#1a73e8" stroke-width="1.8"/>
<rect x="613.96" y="930.78" width="6.2" height="6.2" fill="white" stroke="#1a73e8" stroke-width="1.8"/>
<rect x="626.92" y="925.05" width="6.2" height="6.2" fill="white" stroke="#1a73e8" stroke-width="1.8"/>
<rect x="634.81" y="920.51" width="6.2" height="6.2" fill="white" stroke="#1a73e8" stroke-width="1.8"/>
<rect x="659.72" y="913.09" width="6.2" height="6.2" fill="white" stroke="#1a73e8" stroke-width="1.8"/>
<polyline points="574.58,971.50 587.18,957.33 610.91,938.29 641.12,920.19 678.38,906.21 736.54,885.56 920.14,845.07" fill="none" stroke="#d93025" stroke-width="1.7"/>
<polygon points="574.58,967.70 570.98,974.50 578.18,974.50" fill="white" stroke="#d93025" stroke-width="1.8"/>
<polygon points="587.18,953.53 583.58,960.33 590.78,960.33" fill="white" stroke="#d93025" stroke-width="1.8"/>
<polygon points="610.91,934.49 607.31,941.29 614.51,941.29" fill="white" stroke="#d93025" stroke-width="1.8"/>
<polygon points="641.12,916.39 637.52,923.19 644.72,923.19" fill="white" stroke="#d93025" stroke-width="1.8"/>
<polygon points="678.38,902.41 674.78,909.21 681.98,909.21" fill="white" stroke="#d93025" stroke-width="1.8"/>
<polygon points="736.54,881.76 732.94,888.56 740.14,888.56" fill="white" stroke="#d93025" stroke-width="1.8"/>
<polygon points="920.14,841.27 916.54,848.07 923.74,848.07" fill="white" stroke="#d93025" stroke-width="1.8"/>
</svg>